<svg xmlns="http://www.w3.org/2000/svg" width="1024" height="1024"><path fill="#a7b19d" d="m557 121.25 3.328 1.41c11.305 4.862 21.375 10.23 30.672 18.34l1.828 1.54C603.055 151.857 609.86 164.994 614 178l.716 2.241c9.806 31.79 13.026 65.66 16.243 98.608 1.36 22.235 1.36 22.235 10.041 42.151v2c10.064 4.36 20.117 5.817 30.91 7.076 30.18 3.567 57.406 9.55 77.514 34.705a634 634 0 0 1 6.425 8.434c3.934 5.238 8.015 10.32 12.213 15.348 27.551 33.204 27.551 33.204 27.344 47.027-1.41 8.364-6.656 16.377-13.406 21.41-15.66 10.028-32.136 11.188-50.31 12.21-16.143.469-16.143.469-29.311 8.583-7.185 8.907-8.004 20.1-7.379 31.207.543 3.828 1.321 7.594 2.125 11.375l.667 3.24c1.974 9.502 4.082 18.976 6.24 28.437 5.69 25.1 3.469 48.739-10.071 71.089-3.221 4.696-6.98 8.8-10.961 12.859l-2.326 2.372c-8.04 7.903-17.01 13.957-26.674 19.69-23.429 13.63-23.429 13.63-35.977 36.68-5.848 26.898 4.076 50.497 13.278 75.368a1935 1935 0 0 1 1.874 5.094c10.088 27.297 22.661 45.717 48.358 59.878 17.67 9.738 17.67 9.738 20.467 18.918 0 4.929-1.811 7.92-5.117 11.387-8.492 7.276-19.846 6.454-30.416 5.84-5.529-.51-10.406-2.006-15.467-4.227l-2.809-1.215C634.8 859.231 625.652 847.753 617 836l-1.82-2.41c-4.802-6.577-8.871-13.629-13.006-20.635l-1.502-2.54-1.34-2.284c-1.316-2.175-1.316-2.175-2.942-4.268-1.634-2.19-2.39-4.317-3.39-6.863-1.425-2.82-2.94-5.593-4.437-8.375-7.106-13.372-13.5-27.076-19.916-40.788a7225 7225 0 0 0-4.867-10.367q-1.799-3.84-3.587-7.686-1.125-2.396-2.252-4.792l-1.024-2.22c-2.395-5.062-4.832-9.332-9.542-12.585-5.531-1.946-10.843-2.343-16.25.125-5.422 6.857-6.89 16.157-8.062 24.625l-.476 3.313c-1.79 13.189-3.045 26.443-4.337 39.688l-.342 3.471q-.486 4.996-.955 9.993l-.293 3c-1.608 13.096-1.608 13.096 1.34 25.598 4.816 4.35 11.204 6.352 17.25 8.375 22.236 7.859 22.236 7.859 27.75 17.625 1.988 4.682 2.395 8.748 1.125 13.688-2.137 5.188-5.008 8.022-10.125 10.312-9.05 2.578-18.31 3.192-27.677 3.565l-3.026.124c-10.633.408-21.259.484-31.899.463l-3.131-.002c-24.436-.028-48.847-.714-73.268-1.482q-6.822-.211-13.643-.412c-36.44-1.083-36.44-1.083-49.45-1.612l-3.908-.157q-3.401-.141-6.802-.299l-2.874-.122-2.42-.113c-1.99-.086-1.99-.086-3.902 1.047v-2l-1.703.02c-16.598.164-33.14-.3-49.718-1.082q-4.1-.192-8.201-.355c-40.54-1.616-40.54-1.616-50.378-11.583l-2.375-2.375c-3.64-5.88-4.197-11.146-2.648-17.754 1.246-3.497 2.961-6.645 4.773-9.871 18.187-32.534 9.176-68.476 3.676-103.424l-.46-2.922q-.427-2.707-.862-5.413c-6.249-39.336-1.468-77.718 22.299-110.49 5.452-7.33 11.345-14.092 17.597-20.751a466 466 0 0 0 3.375-3.875c9.867-11.322 20.096-22.66 31.484-32.477 4.254-3.688 8.2-7.63 12.141-11.648 4.536-4.624 9.135-9.066 14.044-13.294 3.175-2.77 6.211-5.683 9.269-8.581 5.188-4.878 10.463-9.554 16.035-13.996 2.811-2.257 5.539-4.597 8.277-6.942 27.285-22.65 57.899-36.195 93.375-39.812l3.679-.383c12.213-1.162 24.435-1.467 36.698-1.614 7.844-.108 15.603-.44 23.408-1.26l2.242-.226c10.394-1.199 18.412-6.4 24.98-14.396a332 332 0 0 0 3.118-4.058l1.692-2.233c15.648-21.067 33.313-49.43 30.96-76.795a30.5 30.5 0 0 0-11.329-18.823c-10.164-6.59-22.172-9.932-33.785-12.931a889 889 0 0 1-11.811-3.176l-2.334-.639C503.993 311.543 489.062 305.884 475 298l-2.17-1.214C461.3 290.24 451.003 282.685 441 274l-1.695-1.454c-21.142-18.224-40.164-46.344-43.578-74.827-.196-4.267-.17-6.124 2.46-9.656 8.136-5.967 16.86-5.28 26.375-3.875l2.945.424c21.174 3.203 39.755 11.415 58.835 20.757 8.447 4.135 16.899 8.21 25.533 11.944l2.443 1.073c5.134 2.182 10.2 3.59 15.682 4.614-.587-12.057-1.657-24.006-3-36-1.684-15.038-3.206-30.099-3.187-45.25l.002-2.237c.197-17.819.197-17.819 4.185-23.513 9.347-4.725 20.233 1.412 29 5.25m-84.758 646.348a698 698 0 0 0-3.367 3.465c-4.191 4.268-8.39 8.426-12.96 12.292a113 113 0 0 0-3.954 3.57c-6.955 6.537-14.557 12.053-22.277 17.645-8.88 6.103-8.88 6.103-16.684 13.43-.25 2.626-.25 2.626 0 5 14.934 8.184 39.46 7.22 55.61 2.852 4.912-1.75 7.003-3.078 9.39-7.852 1.845-5.564 1.186-11.722 1.185-17.522.002-2.18.02-4.358.04-6.537.038-9.79-.783-19.26-2.225-28.941-2.389-.229-2.389-.229-4.758 2.598"/></svg>